<svg width="1207" height="1085" viewBox="0 0 1207 1085" fill="none"
    xmlns="http://www.w3.org/2000/svg">
    <path d="M1207 829.808H0V830.35H1207V829.808Z" fill="#EBEBEB"/>
    <path d="M1086.06 864.723H1006.11V865.266H1086.06V864.723Z" fill="#EBEBEB"/>
    <path d="M799.565 870.626H778.587V871.168H799.565V870.626Z" fill="#EBEBEB"/>
    <path d="M1003.69 844.586H957.368V845.128H1003.69V844.586Z" fill="#EBEBEB"/>
    <path d="M230.899 848.231H126.638V848.774H230.899V848.231Z" fill="#EBEBEB"/>
    <path d="M267.688 848.231H252.408V848.774H267.688V848.231Z" fill="#EBEBEB"/>
    <path d="M543.512 857.389H317.369V857.931H543.512V857.389Z" fill="#EBEBEB"/>
    <path d="M572.118 733.026H105.999C102.347 733.02 98.8474 731.712 96.2676 729.389C93.6879 727.066 92.2389 723.918 92.239 720.635V131.632C92.2707 128.369 93.7337 125.248 96.31 122.948C98.8864 120.649 102.368 119.356 105.999 119.35H572.118C575.774 119.35 579.28 120.655 581.865 122.979C584.45 125.303 585.902 128.454 585.902 131.741V720.635C585.902 723.922 584.45 727.073 581.865 729.397C579.28 731.721 575.774 733.026 572.118 733.026ZM105.999 119.784C102.507 119.79 99.161 121.041 96.6944 123.262C94.2278 125.483 92.8424 128.494 92.8425 131.632V720.635C92.8424 723.774 94.2278 726.784 96.6944 729.006C99.161 731.227 102.507 732.478 105.999 732.483H572.118C575.612 732.478 578.961 731.228 581.431 729.007C583.901 726.786 585.292 723.776 585.298 720.635V131.632C585.292 128.492 583.901 125.481 581.431 123.261C578.961 121.04 575.612 119.79 572.118 119.784H105.999Z" fill="#EBEBEB"/>
    <path d="M1094.29 733.026H628.147C624.493 733.02 620.991 731.713 618.407 729.391C615.824 727.068 614.369 723.92 614.363 720.635V131.632C614.401 128.367 615.869 125.246 618.45 122.947C621.03 120.648 624.514 119.356 628.147 119.35H1094.29C1097.92 119.361 1101.39 120.657 1103.96 122.956C1106.53 125.255 1107.99 128.372 1108.03 131.632V720.635C1108.03 723.914 1106.58 727.059 1104.01 729.382C1101.43 731.704 1097.94 733.014 1094.29 733.026ZM628.147 119.784C624.653 119.79 621.304 121.04 618.834 123.261C616.364 125.481 614.973 128.492 614.967 131.632V720.635C614.973 723.776 616.364 726.786 618.834 729.007C621.304 731.228 624.653 732.478 628.147 732.483H1094.29C1097.78 732.478 1101.13 731.228 1103.6 729.007C1106.07 726.786 1107.46 723.776 1107.47 720.635V131.632C1107.46 128.492 1106.07 125.481 1103.6 123.261C1101.13 121.04 1097.78 119.79 1094.29 119.784H628.147Z" fill="#EBEBEB"/>
    <path d="M432.444 526.637L991.744 526.637V192.305L432.444 192.305V526.637Z" fill="#E6E6E6"/>
    <path d="M423.778 526.637L983.077 526.637V192.305L423.778 192.305V526.637Z" fill="#F5F5F5"/>
    <path d="M967.531 510.927V207.973L439.3 207.973V510.927L967.531 510.927Z" fill="white"/>
    <path d="M445.866 510.948V207.995H439.324V510.948H445.866Z" fill="#E6E6E6"/>
    <path d="M430.199 437.819L976.656 437.819V416.748L430.199 416.748V437.819Z" fill="#F5F5F5"/>
    <g opacity="0.4">
        <path d="M459.215 175.792H406.421V458.629H459.215V175.792Z" fill="#E6E6E6"/>
        <path d="M459.239 435.91H485.407L485.407 175.792H459.239L459.239 435.91Z" fill="#F5F5F5"/>
        <path d="M538.201 175.792H485.407V458.629H538.201V175.792Z" fill="#E6E6E6"/>
        <path d="M538.225 435.91H564.393V175.792H538.225V435.91Z" fill="#F5F5F5"/>
        <path d="M617.187 175.792H564.393V458.629H617.187V175.792Z" fill="#E6E6E6"/>
        <path d="M617.211 435.91H643.379V175.792H617.211V435.91Z" fill="#F5F5F5"/>
        <path d="M696.174 175.792H643.379V458.629H696.174V175.792Z" fill="#E6E6E6"/>
        <path d="M696.198 435.91H722.365V175.792H696.198V435.91Z" fill="#F5F5F5"/>
        <path d="M775.16 175.792H722.365V458.629H775.16V175.792Z" fill="#E6E6E6"/>
        <path d="M775.16 435.91H801.327V175.792H775.16V435.91Z" fill="#F5F5F5"/>
        <path d="M854.122 175.792H801.327V458.629H854.122V175.792Z" fill="#E6E6E6"/>
        <path d="M854.146 435.91H880.313V175.792H854.146V435.91Z" fill="#F5F5F5"/>
        <path d="M933.108 175.792H880.313V458.629H933.108V175.792Z" fill="#E6E6E6"/>
        <path d="M933.132 435.91H959.3V175.792H933.132V435.91Z" fill="#F5F5F5"/>
        <path d="M1012.09 175.792H959.3V458.629H1012.09V175.792Z" fill="#E6E6E6"/>
    </g>
    <path d="M199.855 829.808H323.669L323.669 601.09H199.855L199.855 829.808Z" fill="#EBEBEB"/>
    <path d="M223.367 829.808H199.855V783.218H248.039L223.367 829.808Z" fill="#F5F5F5"/>
    <path d="M906.288 829.808H1030.1V601.09H906.288V829.808Z" fill="#EBEBEB"/>
    <path d="M199.855 801.229L926.807 801.229V601.09L199.855 601.09V801.229Z" fill="#F5F5F5"/>
    <path d="M902.643 744.766H687.145C686.62 744.766 686.117 744.578 685.745 744.244C685.374 743.911 685.166 743.458 685.166 742.986V616.28C685.166 615.808 685.374 615.355 685.745 615.022C686.117 614.688 686.62 614.501 687.145 614.501H726.928C727.354 614.492 727.771 614.615 728.111 614.848C734.024 618.734 740.582 621.758 747.543 623.81C755.937 626.308 764.725 627.569 773.566 627.542H816.197C832.505 627.8 848.479 623.376 861.798 614.913C862.13 614.683 862.538 614.561 862.957 614.566H902.764C903.288 614.566 903.792 614.753 904.163 615.087C904.534 615.421 904.743 615.873 904.743 616.345V742.986C904.744 743.229 904.689 743.47 904.582 743.693C904.475 743.917 904.318 744.118 904.121 744.284C903.924 744.451 903.692 744.58 903.437 744.663C903.183 744.745 902.913 744.78 902.643 744.766ZM689.125 741.207H900.663V618.124H863.488C849.629 626.807 833.088 631.361 816.197 631.144H773.566C764.297 631.171 755.084 629.845 746.288 627.217C739.148 625.111 732.408 622.037 726.3 618.103H689.125V741.207Z" fill="#E6E6E6"/>
    <path d="M671.092 744.766H455.57C455.045 744.766 454.542 744.578 454.17 744.244C453.799 743.911 453.591 743.458 453.591 742.986V616.28C453.591 615.808 453.799 615.355 454.17 615.022C454.542 614.688 455.045 614.501 455.57 614.501H493.204C493.631 614.492 494.048 614.615 494.387 614.848C500.259 618.732 506.777 621.756 513.699 623.81C522.093 626.308 530.881 627.568 539.722 627.542H582.353C598.606 627.757 614.511 623.311 627.761 614.848C628.103 614.621 628.518 614.499 628.944 614.501H671.092C671.353 614.498 671.612 614.542 671.853 614.63C672.095 614.718 672.314 614.849 672.499 615.015C672.683 615.181 672.829 615.378 672.927 615.596C673.026 615.813 673.075 616.045 673.071 616.28V742.921C673.081 743.16 673.037 743.399 672.942 743.622C672.847 743.846 672.703 744.05 672.518 744.222C672.333 744.394 672.112 744.531 671.867 744.624C671.622 744.718 671.358 744.766 671.092 744.766ZM457.574 741.207H669.112V618.124H629.716C615.873 626.803 599.349 631.357 582.474 631.144H539.843C530.574 631.171 521.361 629.845 512.565 627.217C505.411 625.124 498.661 622.05 492.553 618.103H457.55L457.574 741.207Z" fill="#E6E6E6"/>
    <path d="M439.517 744.766H224.019C223.494 744.766 222.991 744.578 222.619 744.244C222.248 743.911 222.04 743.458 222.04 742.986V616.28C222.036 616.045 222.085 615.813 222.184 615.596C222.282 615.378 222.428 615.181 222.612 615.015C222.797 614.849 223.016 614.718 223.258 614.63C223.499 614.542 223.758 614.498 224.019 614.501H261.653C262.072 614.496 262.48 614.618 262.812 614.848C268.689 618.724 275.205 621.748 282.124 623.81C290.526 626.308 299.322 627.569 308.171 627.542H350.802C367.069 627.755 382.989 623.309 396.258 614.848C396.597 614.615 397.014 614.492 397.441 614.501H439.396C439.921 614.501 440.425 614.688 440.796 615.022C441.167 615.355 441.376 615.808 441.376 616.28V742.921C441.396 743.386 441.212 743.839 440.865 744.184C440.517 744.529 440.034 744.738 439.517 744.766ZM225.999 741.207H437.537V618.124H398.31C384.458 626.804 367.927 631.358 351.044 631.144H308.292C299.022 631.175 289.809 629.848 281.014 627.217C273.86 625.124 267.11 622.05 261.002 618.103H225.999V741.207Z" fill="#E6E6E6"/>
    <path d="M903.295 829.808H926.807V783.218H878.648L903.295 829.808Z" fill="#F5F5F5"/>
    <path d="M347.471 562.768H327.942C328.087 550.616 327.942 519.758 326.566 449.081C324.152 321.051 319.638 313.153 319.638 313.153L342.788 376.386C348.285 391.258 351.485 406.737 352.299 422.39C354.858 471.693 345.202 511.057 347.471 562.768Z" fill="#E6E6E6"/>
    <path d="M362.317 357.312C388.364 321.876 440.362 303.388 493.518 285.984C514.375 279.149 455.811 363.931 413.229 402.383C380.157 432.242 348.051 431.57 338.564 460.973C336.729 426.817 339.867 387.844 362.317 357.312Z" fill="#E6E6E6"/>
    <path d="M332.48 334.571C312.058 293.124 260.471 239.373 202.486 201.506C179.722 186.642 235.896 314.346 275.51 366.556C306.361 407.266 335.136 432.047 339.626 461.082C359.083 424.756 352.879 375.996 332.48 334.571Z" fill="#E6E6E6"/>
    <path d="M334.411 601.09C345.451 601.089 356.073 597.293 364.098 590.478C372.124 583.663 376.945 574.347 377.574 564.439L381.412 529.306H287.411L291.225 564.439C291.86 574.349 296.686 583.665 304.715 590.479C312.745 597.294 323.369 601.09 334.411 601.09Z" fill="#F0F0F0"/>
    <path d="M281.328 529.502H387.495L390.537 517.024H278.286L281.328 529.502Z" fill="#F0F0F0"/>
    <path d="M286.566 550.898H382.257L385.009 538.42H283.814L286.566 550.898Z" fill="#F0F0F0"/>
    <path d="M603.5 927.805C861.997 927.805 1071.55 916.807 1071.55 903.241C1071.55 889.674 861.997 878.676 603.5 878.676C345.003 878.676 135.45 889.674 135.45 903.241C135.45 916.807 345.003 927.805 603.5 927.805Z" fill="#F5F5F5"/>
    <path d="M978.346 690.776H228.63V767.073H978.346V690.776Z" fill="#1544B2"/>
    <path opacity="0.3" d="M978.37 690.776H817.549V767.073H978.37V690.776Z" fill="black"/>
    <path d="M311.406 767.073H228.63V903.241H311.406V767.073Z" fill="#1544B2"/>
    <path opacity="0.3" d="M228.653 767.073V774.69L287.265 790.596V903.241H311.405V767.073H228.653Z" fill="black"/>
    <path d="M978.37 767.073H895.594V903.241H978.37V767.073Z" fill="#1544B2"/>
    <path opacity="0.2" d="M978.37 767.073H895.594V903.241H978.37V767.073Z" fill="black"/>
    <path opacity="0.3" d="M895.594 767.073V774.69L954.23 790.596V903.241H978.37V767.073H895.594Z" fill="black"/>
    <path d="M817.549 767.073H734.773V903.241H817.549V767.073Z" fill="#1544B2"/>
    <path opacity="0.3" d="M734.773 767.073V774.69L793.409 790.596V903.241H817.549V767.073H734.773Z" fill="black"/>
    <path d="M472.227 767.073H389.451V903.241H472.227V767.073Z" fill="#1544B2"/>
    <path opacity="0.2" d="M472.227 767.073H389.451V903.241H472.227V767.073Z" fill="black"/>
    <path opacity="0.3" d="M389.451 767.073V774.69L448.087 790.596V903.241H472.227V767.073H389.451Z" fill="black"/>
    <path d="M875.027 675.781H416.656C415.228 675.791 413.813 675.534 412.501 675.027C411.188 674.52 410.007 673.774 409.031 672.836C408.056 671.898 407.308 670.789 406.833 669.578C406.359 668.366 406.169 667.08 406.276 665.799L425.154 396.524C425.393 393.84 426.733 391.332 428.915 389.487C431.097 387.642 433.963 386.593 436.958 386.542H895.304C896.733 386.533 898.148 386.789 899.46 387.296C900.773 387.803 901.954 388.549 902.929 389.487C903.905 390.425 904.653 391.535 905.127 392.746C905.602 393.957 905.791 395.244 905.685 396.524L886.807 665.799C886.568 668.48 885.231 670.985 883.055 672.829C880.878 674.673 878.017 675.725 875.027 675.781Z" fill="#263238"/>
    <path opacity="0.6" d="M875.027 675.781H416.656C415.228 675.791 413.813 675.534 412.501 675.027C411.188 674.52 410.007 673.774 409.031 672.836C408.056 671.898 407.308 670.789 406.833 669.578C406.359 668.366 406.169 667.08 406.276 665.799L425.154 396.524C425.393 393.84 426.733 391.332 428.915 389.487C431.097 387.642 433.963 386.593 436.958 386.542H895.304C896.733 386.533 898.148 386.789 899.46 387.296C900.773 387.803 901.954 388.549 902.929 389.487C903.905 390.425 904.653 391.535 905.127 392.746C905.602 393.957 905.791 395.244 905.685 396.524L886.807 665.799C886.568 668.48 885.231 670.985 883.055 672.829C880.878 674.673 878.017 675.725 875.027 675.781Z" fill="black"/>
    <path d="M871.599 675.781H413.253C411.822 675.794 410.405 675.539 409.089 675.034C407.774 674.528 406.59 673.783 405.612 672.844C404.634 671.906 403.883 670.795 403.407 669.583C402.932 668.37 402.741 667.082 402.848 665.799L421.726 396.524C421.965 393.84 423.306 391.332 425.487 389.487C427.669 387.643 430.536 386.593 433.53 386.542H891.877C893.306 386.529 894.723 386.784 896.037 387.29C897.351 387.795 898.534 388.541 899.51 389.48C900.486 390.419 901.234 391.53 901.707 392.742C902.18 393.955 902.367 395.243 902.257 396.524L883.379 665.799C883.141 668.48 881.803 670.985 879.627 672.829C877.45 674.673 874.589 675.725 871.599 675.781Z" fill="#263238"/>
    <path d="M871.02 679.21H325.625C323.114 679.19 320.648 679.809 318.512 680.995C316.376 682.182 314.657 683.888 313.555 685.915C313.275 686.442 313.15 687.024 313.19 687.606C313.231 688.188 313.436 688.752 313.787 689.243C314.137 689.734 314.621 690.136 315.193 690.412C315.765 690.688 316.406 690.828 317.055 690.82H879.469C880.117 690.828 880.758 690.688 881.33 690.412C881.902 690.136 882.386 689.734 882.736 689.243C883.087 688.752 883.292 688.188 883.333 687.606C883.374 687.024 883.248 686.442 882.969 685.915C881.88 683.901 880.181 682.203 878.067 681.017C875.954 679.831 873.511 679.205 871.02 679.21Z" fill="#263238"/>
    <path opacity="0.6" d="M871.019 679.21H793.458C790.966 679.202 788.522 679.828 786.408 681.014C784.293 682.2 782.595 683.899 781.508 685.915C781.23 686.44 781.105 687.02 781.144 687.601C781.184 688.181 781.387 688.743 781.734 689.233C782.082 689.724 782.563 690.127 783.131 690.404C783.7 690.682 784.338 690.825 784.984 690.819H879.468C880.117 690.828 880.758 690.688 881.33 690.412C881.902 690.136 882.386 689.734 882.736 689.243C883.087 688.752 883.292 688.188 883.333 687.606C883.373 687.024 883.248 686.442 882.969 685.915C881.88 683.901 880.181 682.203 878.067 681.017C875.954 679.831 873.511 679.205 871.019 679.21Z" fill="black"/>
    <path d="M822.933 687.673H802.896C802.433 687.667 801.991 687.498 801.666 687.201C801.341 686.905 801.158 686.505 801.158 686.089C801.158 685.673 801.341 685.273 801.666 684.976C801.991 684.68 802.433 684.51 802.896 684.505H822.933C823.164 684.505 823.393 684.546 823.607 684.625C823.821 684.705 824.015 684.822 824.179 684.969C824.342 685.116 824.472 685.291 824.561 685.483C824.649 685.675 824.695 685.881 824.695 686.089C824.695 686.297 824.649 686.503 824.561 686.695C824.472 686.887 824.342 687.062 824.179 687.209C824.015 687.356 823.821 687.473 823.607 687.552C823.393 687.632 823.164 687.673 822.933 687.673Z" fill="#1544B2"/>
    <path opacity="0.7" d="M565.286 687.673H545.274C544.807 687.673 544.359 687.506 544.028 687.209C543.698 686.912 543.512 686.509 543.512 686.089C543.512 685.881 543.558 685.675 543.646 685.483C543.735 685.291 543.865 685.116 544.028 684.969C544.192 684.822 544.386 684.705 544.6 684.625C544.814 684.546 545.043 684.505 545.274 684.505H565.286C565.518 684.505 565.747 684.546 565.961 684.625C566.175 684.705 566.369 684.822 566.532 684.969C566.696 685.116 566.826 685.291 566.914 685.483C567.003 685.675 567.049 685.881 567.049 686.089C567.049 686.509 566.863 686.912 566.532 687.209C566.202 687.506 565.754 687.673 565.286 687.673Z" fill="white"/>
    <path d="M843.669 684.505H830.561C829.761 684.505 829.112 685.088 829.112 685.807V686.371C829.112 687.09 829.761 687.673 830.561 687.673H843.669C844.469 687.673 845.117 687.09 845.117 686.371V685.807C845.117 685.088 844.469 684.505 843.669 684.505Z" fill="#1544B2"/>
    <path d="M413.18 656.078L430.706 406.246C430.796 405.203 431.317 404.229 432.166 403.514C433.014 402.8 434.13 402.396 435.293 402.383H887.893C888.448 402.375 888.998 402.472 889.509 402.667C890.02 402.861 890.479 403.15 890.859 403.513C891.238 403.877 891.529 404.308 891.713 404.778C891.896 405.249 891.969 405.749 891.925 406.246L874.423 656.078C874.327 657.122 873.801 658.096 872.949 658.811C872.096 659.525 870.978 659.928 869.813 659.94H417.236C416.681 659.944 416.132 659.846 415.622 659.65C415.111 659.455 414.652 659.167 414.271 658.804C413.89 658.441 413.597 658.012 413.409 657.543C413.222 657.074 413.144 656.575 413.18 656.078Z" fill="white"/>
    <path opacity="0.1" d="M670.658 394.68L519.903 652.259H408.69C408.132 652.266 407.579 652.169 407.065 651.973C406.552 651.778 406.089 651.488 405.708 651.122C405.326 650.756 405.033 650.323 404.849 649.85C404.664 649.377 404.591 648.874 404.635 648.374L422.16 398.564C422.25 397.52 422.77 396.543 423.618 395.825C424.466 395.106 425.582 394.698 426.747 394.68H670.658Z" fill="#1544B2"/>
    <path opacity="0.1" d="M802.679 394.68L651.925 652.259H616.777L767.531 394.68H802.679Z" fill="#1544B2"/>
    <path opacity="0.1" d="M883.379 398.564L865.853 648.374C865.769 649.42 865.251 650.4 864.402 651.119C863.552 651.838 862.434 652.245 861.267 652.259H689.873L840.627 394.68H879.251C879.814 394.666 880.374 394.759 880.894 394.952C881.415 395.144 881.884 395.433 882.273 395.799C882.662 396.165 882.961 396.6 883.152 397.076C883.342 397.552 883.42 398.059 883.379 398.564Z" fill="#1544B2"/>
    <path opacity="0.4" d="M665.371 394.94C665.305 395.727 664.914 396.464 664.276 397.006C663.637 397.547 662.797 397.856 661.919 397.87C661.499 397.874 661.084 397.799 660.698 397.651C660.312 397.503 659.965 397.284 659.679 397.008C659.393 396.732 659.174 396.406 659.036 396.05C658.898 395.694 658.844 395.316 658.877 394.94C658.938 394.151 659.327 393.412 659.966 392.869C660.606 392.326 661.45 392.02 662.329 392.01C662.749 392.006 663.165 392.081 663.55 392.229C663.936 392.377 664.283 392.596 664.569 392.872C664.855 393.148 665.074 393.474 665.212 393.83C665.351 394.186 665.404 394.564 665.371 394.94Z" fill="white"/>
    <path d="M590.585 335.026C577.381 348.61 569.752 390.253 579.529 410.738C589.306 431.222 475.872 451.729 569.463 485.017C663.053 518.304 737.912 479.7 710.826 445.219C683.741 410.738 713.747 353.319 682.39 338.889C654.049 325.739 617.043 307.793 590.585 335.026Z" fill="#263238"/>
    <path d="M562.607 502.702C557.658 517.892 552.396 533.082 546.94 548.272C541.484 563.462 535.811 578.479 529.801 593.56L527.507 599.246L526.349 602.088L525.987 602.935L525.407 604.215C525.045 605.039 524.49 605.929 524.007 606.775C521.647 610.65 518.126 613.853 513.844 616.02C509.957 617.917 505.618 618.944 501.195 619.014C494.992 619.041 488.845 617.957 483.114 615.824C478.422 614.113 473.879 612.089 469.523 609.77C453.696 601.021 439.189 590.475 426.361 578.392L436.765 567.368C440.265 569.386 444.007 571.535 447.628 573.553C451.249 575.571 455.039 577.524 458.708 579.455C465.898 583.238 473.321 586.65 480.941 589.676C484.414 591.052 487.996 592.191 491.659 593.083C494.192 593.838 496.871 594.119 499.529 593.907C500.205 593.907 500.084 593.56 499.529 593.755C498.974 593.951 498.37 594.515 498.346 594.45C498.322 594.385 498.346 594.45 498.346 594.32C498.358 594.277 498.358 594.232 498.346 594.189L498.539 593.647L499.457 590.848L501.315 585.206L516.065 539.636C521.086 524.446 526.252 509.256 531.563 494.066L562.607 502.702Z" fill="#B65B52"/>
    <path d="M436.017 567.021L407.966 557.69L419.095 584.338C419.095 584.338 438.889 586.898 446.566 577.545L440.314 570.016C439.23 568.668 437.739 567.629 436.017 567.021Z" fill="#B55B52"/>
    <path d="M383.223 565.437L393.892 587.289L419.215 584.294L408.063 557.647L383.223 565.437Z" fill="#B55B52"/>
    <path d="M542.136 463.404C529.294 466.333 520.41 513.791 520.41 513.791L555.775 535.491C555.775 535.491 589.571 487.621 579.795 474.948C569.414 461.646 560.845 459.129 542.136 463.404Z" fill="#1544B2"/>
    <path opacity="0.5" d="M542.136 463.404C529.294 466.333 520.41 513.791 520.41 513.791L555.775 535.491C555.775 535.491 589.571 487.621 579.795 474.948C569.414 461.646 560.845 459.129 542.136 463.404Z" fill="white"/>
    <path opacity="0.2" d="M540.977 480.655L568.425 486.362L571.056 510.514C566.406 519.041 561.273 527.349 555.679 535.404L534.218 522.384C535.16 511.209 537.477 488.25 540.977 480.655Z" fill="black"/>
    <path d="M542.136 463.403C542.136 463.403 527.29 468.091 557.006 632.273H683.403C681.279 586.03 681.231 557.495 705.805 462.601C688.113 459.312 670.178 457.187 652.142 456.242C630.875 455.309 613.518 454.702 594.737 456.242C570.09 458.261 542.136 463.403 542.136 463.403Z" fill="#1544B2"/>
    <path opacity="0.5" d="M542.136 463.403C542.136 463.403 527.29 468.091 557.006 632.273H683.403C681.279 586.03 681.231 557.495 705.805 462.601C688.113 459.312 670.178 457.187 652.142 456.242C630.875 455.309 613.518 454.702 594.737 456.242C570.09 458.261 542.136 463.403 542.136 463.403Z" fill="white"/>
    <path opacity="0.2" d="M676.065 506.652L692.384 519.151C688.907 535.751 686.566 549.531 685.142 561.878C682.028 549.553 674.254 516.091 676.065 506.652Z" fill="black"/>
    <path d="M646.445 398.13C642.824 414.73 639.203 445.154 652.142 456.242C652.142 456.242 640.072 481.111 608.087 481.111C576.101 481.111 594.737 456.242 594.737 456.242C615.329 451.902 614.798 438.08 611.225 425.19L646.445 398.13Z" fill="#B55B52"/>
    <path d="M648.038 450.036C644.997 455.57 635.196 468.221 607.821 472.735C607.06 472.86 606.275 472.72 605.624 472.344C600.507 469.132 597.32 462.34 599.565 454.463C599.714 453.979 599.709 453.467 599.551 452.986C599.394 452.504 599.089 452.072 598.672 451.738C598.255 451.403 597.743 451.181 597.192 451.095C596.642 451.009 596.076 451.063 595.558 451.251C593.455 452.042 591.436 453.001 589.523 454.116C589.103 454.366 588.762 454.71 588.533 455.114C586.53 458.499 578.419 475.078 602.897 485.299C603.287 485.449 603.704 485.537 604.128 485.559C618.612 485.82 643.935 483.259 659.939 457.349C660.225 456.881 660.352 456.348 660.305 455.816C660.258 455.284 660.038 454.776 659.674 454.355C657.523 452.238 655.024 450.43 652.263 448.995C651.915 448.794 651.525 448.661 651.116 448.605C650.708 448.549 650.291 448.571 649.892 448.669C649.494 448.767 649.123 448.94 648.804 449.175C648.484 449.411 648.223 449.704 648.038 450.036Z" fill="#FAFAFA"/>
    <path d="M654.749 518.348L622.16 517.502C621.82 517.503 621.482 517.44 621.171 517.317C620.859 517.193 620.58 517.012 620.352 516.784C620.124 516.557 619.952 516.288 619.848 515.997C619.743 515.705 619.709 515.397 619.746 515.093L620.06 511.469C620.154 510.859 620.494 510.302 621.014 509.902C621.535 509.502 622.2 509.288 622.884 509.299L655.473 510.145C655.816 510.143 656.156 510.207 656.469 510.332C656.783 510.456 657.063 510.64 657.292 510.87C657.52 511.1 657.691 511.371 657.794 511.665C657.897 511.959 657.929 512.27 657.887 512.576L657.574 516.178C657.479 516.787 657.14 517.345 656.619 517.745C656.099 518.144 655.434 518.359 654.749 518.348Z" fill="#FAFAFA"/>
    <path opacity="0.2" d="M632.082 409.175L611.225 425.168C612.12 428.167 612.717 431.232 613.011 434.325C620.857 433.306 631.671 425.537 632.516 418.137C632.978 415.151 632.831 412.114 632.082 409.175Z" fill="black"/>
    <path d="M670.778 366.73C664.96 394.007 663.15 405.66 645.673 417.964C619.384 436.495 583.391 424.083 580.06 395.808C577.043 370.354 587.061 330.035 618.684 322.57C625.614 320.915 632.899 320.877 639.85 322.46C646.8 324.044 653.186 327.196 658.403 331.618C663.62 336.04 667.494 341.586 669.66 347.73C671.825 353.875 672.21 360.414 670.778 366.73Z" fill="#B55B52"/>
    <path d="M653.518 346.549C649.752 363.627 648.859 386.26 666.264 386.26C683.669 386.26 697.308 359.634 682.293 338.78C667.278 317.927 655.715 336.48 653.518 346.549Z" fill="#263238"/>
    <path d="M683.597 348.654C683.597 367.229 657.574 358.05 646.059 350.043C634.544 342.035 633.989 342.903 612.649 342.882C591.309 342.86 587.037 341.536 580.736 332.379C574.436 323.222 575.015 317.189 589.209 319.12C603.403 321.051 591.478 308.031 602.052 300.805C612.625 293.579 625.154 295.402 639.613 311.894C654.073 328.386 683.597 316.473 683.597 348.654Z" fill="#263238"/>
    <path d="M675.956 391C678.694 382.604 676.008 374.506 669.957 372.911C663.905 371.316 656.78 376.829 654.042 385.225C651.304 393.62 653.99 401.719 660.041 403.313C666.093 404.908 673.218 399.395 675.956 391Z" fill="white"/>
    <path d="M627.64 411.996C622.037 411.995 616.493 410.969 611.346 408.98C611.235 408.94 611.135 408.88 611.051 408.804C610.967 408.729 610.9 408.639 610.855 408.54C610.81 408.441 610.788 408.334 610.789 408.227C610.79 408.12 610.815 408.015 610.863 407.917C610.963 407.719 611.145 407.563 611.37 407.482C611.594 407.401 611.845 407.402 612.07 407.483C616.92 409.354 622.139 410.331 627.418 410.357C632.696 410.384 637.927 409.458 642.8 407.635C647.54 405.891 651.844 403.313 655.459 400.052C659.074 396.791 661.927 392.914 663.85 388.647C671.092 370.007 678.479 346.744 669.933 332.227C668.214 329.401 665.836 326.944 662.96 325.022C660.085 323.101 656.782 321.761 653.277 321.095C653.044 321.039 652.845 320.903 652.723 320.716C652.601 320.529 652.566 320.307 652.625 320.097C652.687 319.888 652.839 319.709 653.047 319.599C653.254 319.49 653.502 319.458 653.735 319.511C657.48 320.235 661.008 321.676 664.078 323.736C667.148 325.795 669.688 328.425 671.527 331.446C680.41 346.441 672.999 370.159 665.54 389.146C663.516 393.627 660.515 397.698 656.713 401.119C652.911 404.541 648.386 407.243 643.403 409.067C638.41 410.953 633.056 411.948 627.64 411.996Z" fill="white"/>
    <path opacity="0.6" d="M675.075 391.077C672.927 397.587 668.002 402.166 664.067 401.146C660.133 400.126 658.684 393.92 660.833 387.323C662.981 380.727 667.906 376.213 671.84 377.255C675.775 378.296 677.224 384.481 675.075 391.077Z" fill="#1544B2"/>
    <path d="M613.852 405.389L604.394 403.749C602.732 403.461 601.124 404.439 600.803 405.933L600.698 406.423C600.377 407.918 601.465 409.363 603.128 409.651L612.585 411.291C614.248 411.58 615.855 410.602 616.176 409.107L616.281 408.617C616.602 407.123 615.514 405.678 613.852 405.389Z" fill="white"/>
    <path d="M601.496 369.009C601.496 369.009 595.896 378.144 590.585 382.245C593.458 385.392 599.251 384.784 599.251 384.784L601.496 369.009Z" fill="#A02724"/>
    <path d="M606.831 396.459H607.049C612.522 396.847 617.955 395.359 622.257 392.293C622.345 392.211 622.395 392.102 622.395 391.989C622.395 391.875 622.345 391.766 622.257 391.685C622.214 391.646 622.163 391.616 622.107 391.595C622.052 391.574 621.992 391.563 621.931 391.563C621.87 391.563 621.81 391.574 621.754 391.595C621.698 391.616 621.648 391.646 621.605 391.685C617.498 394.587 612.331 396.004 607.121 395.656C607.059 395.647 606.995 395.649 606.934 395.663C606.873 395.677 606.816 395.702 606.766 395.737C606.716 395.771 606.675 395.815 606.645 395.864C606.614 395.914 606.596 395.969 606.59 396.025C606.578 396.111 606.594 396.198 606.637 396.275C606.68 396.352 606.748 396.417 606.831 396.459Z" fill="#263238"/>
    <path d="M634.448 358.267C634.584 358.335 634.738 358.371 634.894 358.371C635.05 358.371 635.204 358.335 635.341 358.267C635.548 358.143 635.693 357.952 635.747 357.733C635.801 357.515 635.759 357.286 635.63 357.095C634.476 355.357 632.877 353.892 630.967 352.82C629.057 351.748 626.891 351.101 624.647 350.932C624.395 350.932 624.153 351.021 623.972 351.179C623.792 351.337 623.687 351.552 623.681 351.779C623.681 351.999 623.777 352.211 623.948 352.37C624.12 352.528 624.353 352.619 624.598 352.625C626.532 352.791 628.395 353.365 630.035 354.3C631.675 355.235 633.046 356.505 634.037 358.007C634.145 358.125 634.287 358.215 634.448 358.267Z" fill="#263238"/>
    <path d="M620.615 369.377C620.205 371.547 618.539 373.218 616.898 372.98C615.256 372.741 614.315 370.81 614.725 368.466C615.136 366.122 616.825 364.625 618.443 364.864C620.06 365.103 621.05 367.142 620.615 369.377Z" fill="#263238"/>
    <path d="M592.468 365.081C592.058 367.251 590.392 368.922 588.75 368.683C587.109 368.444 586.168 366.405 586.578 364.169C586.988 361.934 588.678 360.307 590.295 360.567C591.913 360.828 592.903 362.824 592.468 365.081Z" fill="#263238"/>
    <path d="M590.996 360.806L585.298 358.332C585.298 358.332 587.568 362.998 590.996 360.806Z" fill="#263238"/>
    <path d="M619.143 365.103L613.446 362.65C613.446 362.65 615.715 367.316 619.143 365.103Z" fill="#263238"/>
    <path d="M582.909 349.956C583.055 350.034 583.221 350.076 583.391 350.076C583.561 350.076 583.728 350.034 583.874 349.956C585.364 348.83 587.134 348.045 589.034 347.667C590.934 347.29 592.907 347.33 594.786 347.786C595.022 347.861 595.283 347.848 595.509 347.75C595.735 347.653 595.909 347.478 595.993 347.265C596.076 347.052 596.061 346.818 595.953 346.615C595.844 346.411 595.65 346.255 595.413 346.18C593.247 345.626 590.964 345.549 588.757 345.957C586.551 346.365 584.487 347.245 582.74 348.524C582.639 348.588 582.554 348.67 582.49 348.765C582.426 348.86 582.385 348.966 582.369 349.076C582.353 349.186 582.363 349.298 582.398 349.405C582.432 349.511 582.491 349.61 582.571 349.695C582.651 349.811 582.769 349.902 582.909 349.956Z" fill="#263238"/>
    <path d="M552.203 659.94C552.203 659.94 551.865 644.403 557.031 632.273H683.403C683.403 632.273 694.773 648.765 697.718 659.94H552.203Z" fill="#1544B2"/>
    <path d="M685.311 625.611L686.3 635.767C686.759 636.57 685.721 637.372 684.248 637.372H556.306C555.172 637.372 554.23 636.873 554.158 636.222L552.999 626.045C552.999 625.351 553.916 624.743 555.172 624.743H683.114C683.532 624.703 683.955 624.762 684.341 624.914C684.726 625.067 685.06 625.307 685.311 625.611Z" fill="#1544B2"/>
    <path opacity="0.3" d="M685.311 625.611L686.3 635.767C686.759 636.57 685.721 637.372 684.248 637.372H556.306C555.172 637.372 554.23 636.873 554.158 636.222L552.999 626.045C552.999 625.351 553.916 624.743 555.172 624.743H683.114C683.532 624.703 683.955 624.762 684.341 624.914C684.726 625.067 685.06 625.307 685.311 625.611Z" fill="#FAFAFA"/>
    <path d="M668.099 638.457H671.526C672.227 638.457 672.734 638.154 672.685 637.763L671.092 624.548C671.092 624.157 670.44 623.853 669.764 623.853H666.264C665.564 623.853 665.057 624.157 665.105 624.548L666.698 637.763C666.819 638.154 667.423 638.457 668.099 638.457Z" fill="#1544B2"/>
    <path d="M566.011 638.457H569.439C570.114 638.457 570.645 638.154 570.597 637.763L568.98 624.548C568.98 624.157 568.352 623.853 567.652 623.853H564.224C563.548 623.853 563.017 624.157 563.066 624.548L564.683 637.763C564.731 638.154 565.335 638.457 566.011 638.457Z" fill="#1544B2"/>
    <path d="M617.067 638.457H620.398C621.074 638.457 621.605 638.154 621.557 637.763L619.939 624.548C619.939 624.157 619.288 623.853 618.612 623.853H615.184C614.508 623.853 613.977 624.157 614.025 624.548L615.642 637.763C615.787 638.154 616.367 638.457 617.067 638.457Z" fill="#1544B2"/>
    <path d="M716.62 494.76C722.172 510.963 727.507 527.252 732.625 543.628L740.326 568.063L744.164 580.215L745.129 583.209L745.612 584.707L745.733 585.054L745.347 584.511C744.737 583.726 743.986 583.037 743.126 582.471C741.237 581.236 738.989 580.52 736.656 580.41C734.893 580.335 733.136 580.648 731.539 581.321C729.8 582.168 729.969 582.363 730.114 582.211C730.524 581.891 730.896 581.535 731.225 581.148C732.363 579.87 733.411 578.529 734.363 577.133C736.487 574.008 738.587 570.493 740.567 566.891C744.671 559.686 748.364 552.048 752.106 544.366C755.848 536.684 759.348 528.916 762.969 521.082C766.59 513.248 770.042 505.371 773.615 497.603L789.04 501.726C785.033 518.652 780.35 535.274 774.556 551.831C771.707 560.142 768.545 568.366 764.9 576.699C763.017 580.866 761.014 585.032 758.527 589.35C757.201 591.686 755.718 593.947 754.085 596.121C753.071 597.484 751.941 598.776 750.706 599.983C748.747 601.981 746.367 603.611 743.705 604.779C741.048 605.941 738.112 606.492 735.16 606.385C731.659 606.21 728.297 605.099 725.504 603.195C723.723 601.988 722.181 600.521 720.941 598.855C720.157 597.786 719.47 596.661 718.889 595.491C718.672 595.014 718.431 594.515 718.262 594.081L717.803 593.018L717.175 591.477L715.92 588.417C714.278 584.359 712.613 580.301 711.092 576.243C708.002 568.128 704.912 560.034 702.015 551.896C696.093 535.636 690.573 519.295 685.455 502.876L716.62 494.76Z" fill="#B65B52"/>
    <path d="M705.805 462.601C718.479 466.051 737.863 510.731 737.863 510.731L688.738 542.305C688.738 542.305 666.65 504.113 671.961 489.4C677.513 474.08 691.37 458.651 705.805 462.601Z" fill="#1544B2"/>
    <path opacity="0.5" d="M705.805 462.601C718.479 466.051 737.863 510.731 737.863 510.731L688.738 542.305C688.738 542.305 666.65 504.113 671.961 489.4C677.513 474.08 691.37 458.651 705.805 462.601Z" fill="white"/>
    <path d="M774.17 503.548L767.435 476.857L795.437 490.138C795.437 490.138 795.775 508.105 784.478 513.769L774.17 503.548Z" fill="#B55B52"/>
    <path d="M779.167 455.678L797.03 467.071L795.437 490.138L767.435 476.858L779.167 455.678Z" fill="#B55B52"/>
    <path d="M277.61 321.355H473.144C476.877 321.322 480.578 321.986 484.011 323.304C487.444 324.622 490.536 326.567 493.091 329.014C495.646 331.461 497.608 334.359 498.853 337.523C500.098 340.686 500.6 344.048 500.326 347.395L494.87 426.947C494.27 433.951 490.785 440.501 485.098 445.316C479.41 450.132 471.928 452.868 464.116 452.987H441.472L450.718 480.308L406.493 452.987H268.654C264.921 453.021 261.22 452.357 257.787 451.039C254.354 449.72 251.262 447.776 248.707 445.329C246.153 442.881 244.191 439.984 242.945 436.82C241.7 433.656 241.198 430.295 241.472 426.947L246.88 347.395C247.479 340.396 250.96 333.849 256.643 329.033C262.326 324.218 269.802 321.48 277.61 321.355Z" fill="#1544B2"/>
    <path d="M455.232 363.019H289.873C289.171 363.016 288.478 362.881 287.836 362.624C287.195 362.367 286.62 361.993 286.148 361.526C285.676 361.059 285.317 360.509 285.094 359.91C284.871 359.312 284.789 358.678 284.852 358.05C284.96 356.733 285.612 355.5 286.679 354.593C287.747 353.685 289.153 353.169 290.622 353.146H456.005C456.703 353.147 457.394 353.278 458.034 353.529C458.674 353.781 459.249 354.148 459.725 354.608C460.2 355.068 460.565 355.611 460.797 356.203C461.03 356.795 461.124 357.424 461.074 358.05C460.988 359.391 460.335 360.653 459.25 361.576C458.164 362.5 456.727 363.016 455.232 363.019Z" fill="white"/>
    <path d="M357.272 392.076H287.894C287.191 392.08 286.495 391.954 285.849 391.705C285.204 391.456 284.622 391.09 284.142 390.63C283.661 390.169 283.292 389.624 283.057 389.029C282.822 388.434 282.726 387.801 282.776 387.171C282.884 385.851 283.54 384.615 284.612 383.707C285.685 382.799 287.097 382.285 288.57 382.267H358.02C358.725 382.26 359.424 382.383 360.072 382.631C360.721 382.878 361.305 383.244 361.788 383.705C362.271 384.166 362.643 384.712 362.88 385.309C363.116 385.905 363.212 386.54 363.162 387.171C363.047 388.505 362.376 389.751 361.285 390.66C360.193 391.569 358.76 392.074 357.272 392.076Z" fill="white"/>
    <path d="M416.729 421.132H285.914C285.212 421.136 284.516 421.01 283.87 420.761C283.224 420.513 282.643 420.146 282.162 419.686C281.682 419.225 281.312 418.68 281.077 418.085C280.842 417.49 280.747 416.858 280.796 416.228C280.9 414.905 281.553 413.666 282.627 412.757C283.7 411.849 285.115 411.337 286.59 411.323H417.405C418.108 411.316 418.806 411.439 419.453 411.687C420.101 411.935 420.684 412.301 421.165 412.762C421.646 413.224 422.016 413.77 422.249 414.367C422.483 414.963 422.576 415.597 422.522 416.228C422.414 417.548 421.759 418.784 420.686 419.692C419.614 420.6 418.202 421.114 416.729 421.132Z" fill="white"/>
    <path d="M408.232 392.076H380.881C380.178 392.08 379.482 391.954 378.837 391.705C378.191 391.456 377.61 391.09 377.129 390.63C376.648 390.169 376.279 389.624 376.044 389.029C375.809 388.434 375.713 387.801 375.763 387.171C375.877 385.853 376.534 384.619 377.605 383.712C378.677 382.805 380.086 382.29 381.557 382.267H408.883C409.587 382.259 410.285 382.383 410.932 382.631C411.579 382.879 412.162 383.245 412.644 383.706C413.125 384.167 413.494 384.714 413.728 385.31C413.962 385.907 414.055 386.541 414.001 387.171C413.893 388.488 413.241 389.721 412.174 390.629C411.106 391.536 409.7 392.052 408.232 392.076Z" fill="white"/>
    <path d="M549.885 178.352H443.283C437.204 178.434 431.379 180.557 426.952 184.303C422.525 188.05 419.817 193.149 419.36 198.598L415.208 260.53C415.001 263.134 415.397 265.748 416.369 268.208C417.342 270.668 418.871 272.919 420.86 274.822C422.849 276.724 425.255 278.235 427.926 279.26C430.597 280.284 433.475 280.801 436.379 280.776H453.832L443.742 302.042L481.062 280.776H542.909C548.988 280.694 554.813 278.572 559.24 274.825C563.666 271.079 566.374 265.98 566.831 260.53L571.056 198.598C571.263 195.994 570.867 193.38 569.895 190.921C568.922 188.461 567.393 186.209 565.404 184.307C563.415 182.405 561.009 180.894 558.338 179.869C555.667 178.844 552.789 178.328 549.885 178.352Z" fill="#1544B2"/>
    <g opacity="0.5">
        <path d="M549.885 178.352H443.283C437.204 178.434 431.379 180.557 426.952 184.303C422.525 188.05 419.817 193.149 419.36 198.598L415.208 260.53C415.001 263.134 415.397 265.748 416.369 268.208C417.342 270.668 418.871 272.919 420.86 274.822C422.849 276.724 425.255 278.235 427.926 279.26C430.597 280.284 433.475 280.801 436.379 280.776H453.832L443.742 302.042L481.062 280.776H542.909C548.988 280.694 554.813 278.572 559.24 274.825C563.666 271.079 566.374 265.98 566.831 260.53L571.056 198.598C571.263 195.994 570.867 193.38 569.895 190.921C568.922 188.461 567.393 186.209 565.404 184.307C563.415 182.405 561.009 180.894 558.338 179.869C555.667 178.844 552.789 178.328 549.885 178.352Z" fill="#FAFAFA"/>
    </g>
    <path d="M498.491 239.698C498.124 241.062 497.258 242.276 496.033 243.145C494.807 244.015 493.293 244.49 491.732 244.494H485.431C485.431 242.888 485.576 241.912 485.6 241.564C485.692 238.437 486.584 235.37 488.207 232.602C490.488 229.517 493.386 226.839 496.753 224.703C499.438 222.954 501.972 221.025 504.333 218.931C505.585 217.599 506.33 215.941 506.457 214.201C506.552 213.048 506.351 211.89 505.87 210.818C505.389 209.746 504.64 208.787 503.681 208.016C501.339 206.213 498.311 205.295 495.232 205.456C491.995 205.376 488.831 206.329 486.3 208.146C484.797 209.262 483.564 210.643 482.679 212.204C482.027 213.345 481.015 214.287 479.77 214.912C478.524 215.538 477.101 215.819 475.679 215.72C474.655 215.606 473.68 215.262 472.844 214.719C472.008 214.177 471.337 213.454 470.894 212.616C470.452 211.779 470.251 210.855 470.311 209.93C470.371 209.004 470.689 208.107 471.237 207.322C472.694 205.124 474.564 203.171 476.765 201.55C481.997 197.769 488.574 195.819 495.28 196.059C503.174 196.059 509.306 197.904 513.723 201.615C515.791 203.213 517.419 205.221 518.479 207.48C519.539 209.739 520.001 212.188 519.831 214.635C519.609 217.416 518.54 220.089 516.741 222.36C513.35 226.113 509.431 229.454 505.081 232.298C502.828 233.713 500.881 235.485 499.336 237.528C498.943 238.213 498.659 238.943 498.491 239.698ZM484.707 255.279V254.584C484.834 253.016 485.612 251.548 486.886 250.471C488.16 249.394 489.838 248.786 491.587 248.769H492.456C493.293 248.758 494.123 248.903 494.893 249.196C495.664 249.489 496.358 249.922 496.933 250.469C497.507 251.016 497.949 251.664 498.229 252.373C498.51 253.081 498.624 253.834 498.564 254.584V255.279C498.437 256.849 497.66 258.32 496.386 259.4C495.113 260.481 493.435 261.093 491.684 261.116H490.911C490.064 261.14 489.222 261.003 488.438 260.714C487.654 260.426 486.946 259.992 486.361 259.441C485.776 258.891 485.326 258.235 485.041 257.518C484.756 256.801 484.642 256.038 484.707 255.279Z" fill="white"/>
</svg>
