<svg width="141" height="21" viewBox="0 0 141 21" fill="none" xmlns="http://www.w3.org/2000/svg">
    <path d="M11.1076 6.36917H14.9421C14.8866 2.97281 12.1147 0.62793 7.90141 0.62793C3.75276 0.62793 0.712888 2.93559 0.731368 6.39708C0.722128 9.20722 2.69019 10.817 5.88714 11.5893L7.9476 12.1104C10.0081 12.6129 11.1538 13.2084 11.163 14.4925C11.1538 15.8883 9.84175 16.8374 7.80901 16.8374C5.73007 16.8374 4.23323 15.8697 4.10387 13.9621H0.232422C0.334059 18.0843 3.26306 20.2151 7.85521 20.2151C12.4751 20.2151 15.1916 17.9912 15.2008 14.5018C15.1916 11.3288 12.8169 9.64455 9.5276 8.90015L7.82749 8.49072C6.18281 8.10921 4.80609 7.49508 4.83381 6.12723C4.83381 4.89896 5.91486 3.99637 7.87369 3.99637C9.78631 3.99637 10.9598 4.87105 11.1076 6.36917Z" fill="#16246E"/>
    <path d="M24.3261 5.65267H21.6558V2.2284H17.7196V5.65267H15.7793V8.6303H17.7196V16.0744C17.7012 18.8752 19.5953 20.2617 22.4504 20.1407C23.4668 20.1035 24.1875 19.8988 24.5848 19.7685L23.9657 16.8188C23.7717 16.856 23.3559 16.949 22.9863 16.949C22.2009 16.949 21.6558 16.6513 21.6558 15.5533V8.6303H24.3261V5.65267Z" fill="#16246E"/>
    <path d="M32.1092 20.2244C36.415 20.2244 39.0945 17.2561 39.0945 12.8548C39.0945 8.42559 36.415 5.46657 32.1092 5.46657C27.8035 5.46657 25.124 8.42559 25.124 12.8548C25.124 17.2561 27.8035 20.2244 32.1092 20.2244ZM32.1277 17.1538C30.1412 17.1538 29.1248 15.3207 29.1248 12.8269C29.1248 10.3331 30.1412 8.49072 32.1277 8.49072C34.0773 8.49072 35.0937 10.3331 35.0937 12.8269C35.0937 15.3207 34.0773 17.1538 32.1277 17.1538Z" fill="#16246E"/>
    <path d="M44.5493 11.6824C44.5585 9.83996 45.6488 8.76057 47.238 8.76057C48.818 8.76057 49.7697 9.80274 49.7605 11.5521V19.9453H53.6966V10.8449C53.6966 7.51369 51.7563 5.46657 48.7995 5.46657C46.6929 5.46657 45.1683 6.50874 44.5308 8.17435H44.3645V5.65267H40.6131V19.9453H44.5493V11.6824Z" fill="#16246E"/>
    <path d="M62.2259 20.2244C65.737 20.2244 68.1024 18.503 68.6568 15.851L65.0163 15.6091C64.619 16.6978 63.6026 17.2654 62.2906 17.2654C60.3225 17.2654 59.0751 15.9534 59.0751 13.8225V13.8132H68.7399V12.7245C68.7399 7.86728 65.8202 5.46657 62.0688 5.46657C57.8925 5.46657 55.1852 8.4535 55.1852 12.8641C55.1852 17.3957 57.8555 20.2244 62.2259 20.2244ZM59.0751 11.3567C59.1583 9.7283 60.3872 8.42559 62.1335 8.42559C63.8428 8.42559 65.0255 9.65386 65.0348 11.3567H59.0751Z" fill="#16246E"/>
    <path d="M74.2039 11.6824C74.2132 9.83996 75.3312 8.76057 76.9389 8.76057C78.5374 8.76057 79.4798 9.79344 79.4706 11.5521V19.9453H83.4067V10.8449C83.4159 7.49508 81.4571 5.46657 78.5004 5.46657C76.3475 5.46657 74.9061 6.49013 74.2594 8.17435H74.093V0.888472H70.2678V19.9453H74.2039V11.6824Z" fill="#16246E"/>
    <path d="M89.5106 20.2151C91.608 20.2151 92.9662 19.2939 93.6592 17.9633H93.7701V19.9453H97.5029V10.3052C97.5029 6.89955 94.6386 5.46657 91.4786 5.46657C88.0784 5.46657 85.8424 7.10427 85.2972 9.70969L88.9377 10.0075C89.2057 9.05833 90.0465 8.36045 91.4602 8.36045C92.7999 8.36045 93.5668 9.03972 93.5668 10.2122V10.268C93.5668 11.1892 92.5966 11.3102 90.1296 11.5521C87.3207 11.8126 84.7983 12.7618 84.7983 15.9534C84.7983 18.7821 86.8033 20.2151 89.5106 20.2151ZM90.6378 17.4794C89.4274 17.4794 88.5589 16.9118 88.5589 15.8231C88.5589 14.7065 89.4736 14.1575 90.8596 13.9621C91.7189 13.8411 93.1233 13.6364 93.5945 13.3201V14.8368C93.5945 16.3349 92.3656 17.4794 90.6378 17.4794Z" fill="#16246E"/>
    <path d="M112.239 5.65267H108.072L105.134 15.879H104.986L102.038 5.65267H97.8805L102.842 19.9453H107.277L112.239 5.65267Z" fill="#16246E"/>
    <path d="M119.198 20.2244C122.709 20.2244 125.074 18.503 125.628 15.851L121.988 15.6091C121.591 16.6978 120.574 17.2654 119.262 17.2654C117.294 17.2654 116.047 15.9534 116.047 13.8225V13.8132H125.712V12.7245C125.712 7.86728 122.792 5.46657 119.04 5.46657C114.864 5.46657 112.157 8.4535 112.157 12.8641C112.157 17.3957 114.827 20.2244 119.198 20.2244ZM116.047 11.3567C116.13 9.7283 117.359 8.42559 119.105 8.42559C120.815 8.42559 121.997 9.65386 122.006 11.3567H116.047Z" fill="#16246E"/>
    <path d="M131.176 11.6824C131.185 9.83996 132.275 8.76057 133.864 8.76057C135.444 8.76057 136.396 9.80274 136.387 11.5521V19.9453H140.323V10.8449C140.323 7.51369 138.383 5.46657 135.426 5.46657C133.319 5.46657 131.795 6.50874 131.157 8.17435H130.991V5.65267H127.239V19.9453H131.176V11.6824Z" fill="#16246E"/>
</svg>