<svg width="182" height="148" viewBox="0 0 182 148" fill="none"
    xmlns="http://www.w3.org/2000/svg">
    <path d="M163.199 36.7132C163.309 38.3088 163.309 39.9044 163.309 41.5147C163.309 90.5809 125.956 147.169 57.6544 147.169V147.14C37.4779 147.169 17.7206 141.39 0.735291 130.493C3.66911 130.846 6.61764 131.022 9.57353 131.029C26.2941 131.044 42.5368 125.434 55.6912 115.103C39.8015 114.801 25.8676 104.441 21 89.3162C26.5662 90.3897 32.3015 90.1691 37.7647 88.6765C20.4412 85.1765 7.97794 69.9559 7.97794 52.2794V51.8088C13.1397 54.6838 18.9191 56.2794 24.8309 56.4559C8.5147 45.5515 3.48529 23.8456 13.3382 6.875C32.1912 30.0735 60.0074 44.1765 89.8677 45.6691C86.875 32.7721 90.9632 19.2574 100.61 10.1912C115.566 -3.86765 139.088 -3.14706 153.147 11.8015C161.463 10.1618 169.434 7.1103 176.728 2.78677C173.956 11.3824 168.154 18.6838 160.404 23.3235C167.765 22.4559 174.956 20.4853 181.728 17.4779C176.743 24.9485 170.463 31.4559 163.199 36.7132Z" fill="#0F1E50"/>
</svg>
