<svg width="150" height="150" viewBox="0 0 150 150" fill="none"
    xmlns="http://www.w3.org/2000/svg">
    <g clip-path="url(#clip0_11_12450)">
        <path d="M28.5992 6.87217C23.7682 8.75464 19.6827 11.2646 15.5973 15.3582C11.5118 19.422 9.00686 23.5455 7.12814 28.3563C5.30907 33.0176 4.08641 38.3663 3.72856 46.195C3.37071 54.0237 3.28125 56.5336 3.28125 76.4938C3.28125 96.454 3.37071 98.964 3.72856 106.793C4.08641 114.621 5.33889 119.97 7.12814 124.631C9.00686 129.472 11.5118 133.566 15.5973 137.659C19.6827 141.753 23.7682 144.263 28.5992 146.145C33.2512 147.968 38.5892 149.193 46.4023 149.552C54.2153 149.91 56.7203 150 76.6406 150C96.561 150 99.0659 149.91 106.879 149.552C114.692 149.193 120.03 147.938 124.682 146.145C129.513 144.263 133.599 141.753 137.684 137.659C141.769 133.566 144.274 129.472 146.153 124.631C147.972 119.97 149.195 114.621 149.553 106.793C149.911 98.964 150 96.454 150 76.4938C150 56.5336 149.911 54.0237 149.553 46.195C149.195 38.3663 147.942 33.0176 146.153 28.3563C144.274 23.5455 141.769 19.422 137.714 15.3582C133.628 11.2646 129.543 8.75464 124.712 6.87217C120.06 5.04946 114.722 3.82435 106.909 3.46579C99.0958 3.10722 96.5908 3.01758 76.6704 3.01758C56.7501 3.01758 54.2451 3.10722 46.4321 3.46579C38.5892 3.79447 33.2512 5.04946 28.5992 6.87217ZM106.283 16.673C113.44 17.0017 117.316 18.1969 119.911 19.2128C123.34 20.5575 125.785 22.1411 128.35 24.7109C130.915 27.2806 132.495 29.7308 133.837 33.167C134.851 35.7667 136.044 39.6511 136.372 46.8225C136.73 54.5615 136.789 56.8922 136.789 76.5237C136.789 96.1552 136.7 98.4859 136.372 106.225C136.044 113.396 134.851 117.281 133.837 119.88C132.495 123.317 130.915 125.767 128.35 128.337C125.785 130.906 123.34 132.49 119.911 133.835C117.316 134.851 113.44 136.046 106.283 136.374C98.559 136.733 96.233 136.793 76.6406 136.793C57.0483 136.793 54.7223 136.703 46.9987 136.374C39.8417 136.046 35.9649 134.851 33.3705 133.835C29.9411 132.49 27.4958 130.906 24.9312 128.337C22.3666 125.767 20.7861 123.317 19.4442 119.88C18.4303 117.281 17.2374 113.396 16.9094 106.225C16.5515 98.4859 16.4919 96.1552 16.4919 76.5237C16.4919 56.8922 16.5814 54.5615 16.9094 46.8225C17.2374 39.6511 18.4303 35.7667 19.4442 33.167C20.7861 29.7308 22.3666 27.2806 24.9312 24.7109C27.4958 22.1411 29.9411 20.5575 33.3705 19.2128C35.9649 18.1969 39.8417 17.0017 46.9987 16.673C54.7223 16.3144 57.0483 16.2547 76.6406 16.2547C96.233 16.2547 98.559 16.3144 106.283 16.673Z" fill="url(#paint0_radial_11_12450)"/>
        <path d="M38.9769 76.5237C38.9769 97.3804 55.8555 114.263 76.6407 114.263C97.4258 114.263 114.304 97.3505 114.304 76.5237C114.304 55.697 97.4556 38.7846 76.6407 38.7846C55.8257 38.7846 38.9769 55.6671 38.9769 76.5237ZM101.094 76.5237C101.094 90.0596 90.1495 101.026 76.6407 101.026C63.1318 101.026 52.1875 90.0596 52.1875 76.5237C52.1875 62.9878 63.1318 52.0217 76.6407 52.0217C90.1495 52.0217 101.094 62.9878 101.094 76.5237Z" fill="url(#paint1_radial_11_12450)"/>
        <path d="M115.825 46.1053C120.684 46.1053 124.622 42.1588 124.622 37.2905C124.622 32.4222 120.684 28.4757 115.825 28.4757C110.967 28.4757 107.028 32.4222 107.028 37.2905C107.028 42.1588 110.967 46.1053 115.825 46.1053Z" fill="#0F1E50"/>
    </g>
    <defs>
        <radialGradient id="paint0_radial_11_12450" cx="0" cy="0" r="1" gradientUnits="userSpaceOnUse" gradientTransform="translate(5.9508 136.543) rotate(-3.00608) scale(212.121 180.66)">
            <stop stop-color="#0F1E50" stop-opacity="0"/>
            <stop offset="0.2634" stop-color="#0F1E50" stop-opacity="0.3"/>
            <stop offset="0.6091" stop-color="#0F1E50" stop-opacity="0.6"/>
            <stop offset="1" stop-color="#0F1E50"/>
        </radialGradient>
        <radialGradient id="paint1_radial_11_12450" cx="0" cy="0" r="1" gradientUnits="userSpaceOnUse" gradientTransform="translate(40.3431 107.342) rotate(-3.00608) scale(108.927 92.7712)">
            <stop stop-color="#0F1E50" stop-opacity="0.02"/>
            <stop offset="0.2634" stop-color="#0F1E50" stop-opacity="0.3"/>
            <stop offset="0.6091" stop-color="#0F1E50" stop-opacity="0.6"/>
            <stop offset="1" stop-color="#0F1E50"/>
        </radialGradient>
        <clipPath id="clip0_11_12450">
            <rect width="150" height="150" fill="white"/>
        </clipPath>
    </defs>
</svg>
