<?xml version="1.0" encoding="utf-8"?>
<!-- Generator: Adobe Illustrator 27.1.1, SVG Export Plug-In . SVG Version: 6.00 Build 0)  -->
<svg version="1.1" id="Capa_1" xmlns="http://www.w3.org/2000/svg" xmlns:xlink="http://www.w3.org/1999/xlink" x="0px" y="0px"
	 viewBox="0 0 74 20" style="enable-background:new 0 0 74 20;" xml:space="preserve">
<style type="text/css">
	.st0{fill:#0451DD;}
</style>
<path class="st0" d="M28.1,2.8c0,0-0.7,0.3-1.8,1.6l-5.8,7.2V16c0,1.1,0.4,1.6,0.4,1.6h-7.2c0,0,0.4-0.6,0.4-1.6v-4.3L8.4,4.6
	c-1-1.3-1.8-1.7-1.8-1.7h7.2c0,0,0.2,0.7,1,1.9l2.4,3.7h0.1l2.4-3.7c0.8-1.1,1-1.9,1-1.9H28.1z"/>
<path class="st0" d="M42.5,2.8h-12c0,0,0.5,0.6,0.5,1.6V16c0,1.1-0.5,1.6-0.5,1.6h7.2c0,0-0.4-0.6-0.4-1.6v-3.6h5.2
	c3.3,0,5.8-1.7,5.8-4.8S45.9,2.8,42.5,2.8z M39.3,9.8h-2V5.6h2c1.5,0,2.6,0.6,2.6,2S40.8,9.8,39.3,9.8z"/>
<path class="st0" d="M66.8,6.3c0,0-0.7-0.4-1.8-0.4h-7.2v3.6h5.8c1.1,0,2-0.2,2-0.2v3.6c0,0-0.8-0.3-2-0.3h-5.7v3.6
	c0,1.1,0.4,1.6,0.4,1.6h-7.2c0,0,0.4-0.5,0.4-1.6V4.4c0-1.1-0.5-1.6-0.5-1.6h15.7V6.3L66.8,6.3z"/>
</svg>
