<svg width="150" height="150" viewBox="0 0 150 150" fill="none"
    xmlns="http://www.w3.org/2000/svg">
    <g clip-path="url(#clip0_11_12445)">
        <path d="M22.6508 0.00842285H127.349C139.859 0.00842285 150 10.1495 150 22.6592V127.343C150 139.852 139.859 149.993 127.349 149.993H22.6508C10.1411 149.993 0 139.852 0 127.343V22.6592C0 10.1495 10.1411 0.00842285 22.6508 0.00842285Z" fill="#0F1E50"/>
        <path opacity="0.781116" d="M110.37 6.4209H39.63C20.9048 6.4209 5.83051 21.6182 5.83051 40.4957V109.511C6.43661 124.246 8.76803 114.931 13.2058 98.6124C18.3634 79.6471 35.1605 63.0714 55.616 50.6484C71.2288 41.1669 88.7053 35.1121 120.516 34.5361C138.556 34.2095 136.964 11.1226 110.37 6.4209Z" fill="url(#paint0_linear_11_12445)"/>
        <path d="M47.994 125.888V57.7245H25.338V125.888H47.994ZM36.669 48.4125C44.5695 48.4125 49.4872 43.1783 49.4872 36.6375C49.34 29.9491 44.5698 24.8603 36.819 24.8603C29.0692 24.8603 24.0015 29.9492 24.0015 36.6375C24.0015 43.1787 28.918 48.4125 36.5212 48.4125H36.669Z" fill="white"/>
        <path d="M60.534 125.888H83.19V87.822C83.19 85.7848 83.3372 83.7497 83.9355 82.2934C85.5733 78.2231 89.3011 74.0074 95.5597 74.0074C103.758 74.0074 107.038 80.2581 107.038 89.4214V125.887H129.692V86.8031C129.692 65.8661 118.515 56.1244 103.609 56.1244C91.3867 56.1244 86.0205 62.9561 83.0392 67.6091H83.1905V57.7234H60.5345C60.8318 64.1194 60.5345 125.886 60.5345 125.886L60.534 125.888Z" fill="white"/>
    </g>
    <defs>
        <linearGradient id="paint0_linear_11_12445" x1="18.787" y1="-15.3946" x2="38.3045" y2="41.493" gradientUnits="userSpaceOnUse">
            <stop stop-color="white"/>
            <stop offset="1" stop-color="white" stop-opacity="0"/>
        </linearGradient>
        <clipPath id="clip0_11_12445">
            <rect width="150" height="150" fill="white"/>
        </clipPath>
    </defs>
</svg>
